<svg width="24" height="25" viewBox="0 0 24 25" fill="none" xmlns="http://www.w3.org/2000/svg">
<path d="M9.57 19.32C9.38 19.32 9.19 19.25 9.04 19.1L2.97 13.03C2.83052 12.8889 2.7523 12.6984 2.7523 12.5C2.7523 12.3016 2.83052 12.1111 2.97 11.97L9.04 5.9C9.33 5.61 9.81 5.61 10.1 5.9C10.39 6.19 10.39 6.67 10.1 6.96L4.56 12.5L10.1 18.04C10.39 18.33 10.39 18.81 10.1 19.1C9.96 19.25 9.76 19.32 9.57 19.32Z" fill="#D91B5C"/>
<path d="M20.5 13.25H3.67C3.26 13.25 2.92 12.91 2.92 12.5C2.92 12.09 3.26 11.75 3.67 11.75H20.5C20.91 11.75 21.25 12.09 21.25 12.5C21.25 12.91 20.91 13.25 20.5 13.25Z" fill="#D91B5C"/>
</svg>
